<svg width="200px" height="200px" viewBox="0 0 904 975" xmlns="http://www.w3.org/2000/svg" role="img" aria-label="mailbox" style="width: 200px; height: 200px;" class="">
	<g fill-rule="nonzero" fill="none">
		<g opacity="0.49">
			<path d="M310 50.4a34.7 34.7 0 01-25.6 32.8 36 36 0 01-35.8 27.5c-10 0-19.7-3.9-26.8-11a37.1 37.1 0 01-30.3 15.3A36.3 36.3 0 01156 88.9l-4.5.3c-20.2 0-36.6-15.5-36.6-34.5s16.4-34.5 36.6-34.5h2.3c7-9.4 18.2-15 30-14.8 9.3-.1 18.3 3.2 25.2 9.4a37.8 37.8 0 0160.4 1.3c1.4-.2 2.7-.2 4-.2A35.5 35.5 0 01310 50.4z" fill="#E8E8E8">
			</path>
			<path d="M310 50.4a34.8 34.8 0 01-25.6 32.8 36.1 36.1 0 01-35.8 27.5c-10 0-19.7-3.9-26.8-11a37.1 37.1 0 01-30.3 15.3A36.3 36.3 0 01156 88.9l-4.5.3c-20.2 0-36.6-15.5-36.6-34.5 0-3 .4-5.9 1.2-8.7a36.3 36.3 0 0040 25.5c3.9 15 18.3 26.1 35.4 26.1 12 .1 23.3-5.6 30.3-15.3 7.1 7.1 16.8 11.1 26.8 11A36.1 36.1 0 00284.4 66a35.5 35.5 0 0024.4-24.2 33 33 0 011.1 8.7z" fill="#000002" opacity="0.06">
			</path>
			<path d="M196.8 261c.5 17.1-15 31.5-34.5 32-1.9 0-3.8 0-5.7-.3a39 39 0 01-46.5 9.3 39.3 39.3 0 01-18.3 5 35.8 35.8 0 01-33.1-18.2 38.4 38.4 0 01-22.2 7.6c-19.6.6-35.8-12.9-36.3-30a29.2 29.2 0 0110.1-22.6l-.3-3.6c-.5-17.1 15-31.5 34.5-32a39 39 0 0118.9 4.2c6.9-6.7 16-10.5 25.6-10.6a37.1 37.1 0 0128.9 11.9c2.2-.5 4.5-.7 6.8-.8a35.7 35.7 0 0133.2 18.2l2.7-.2c19.6-.5 35.8 13 36.3 30.1z" fill="#E8E8E8" class="">
			</path>
			<path d="M196.8 261c.5 17.1-15 31.5-34.5 32-1.9 0-3.8 0-5.7-.3a39 39 0 01-46.5 9.3 39.2 39.2 0 01-18.2 5 35.8 35.8 0 01-33.2-18.2 38.4 38.4 0 01-22.2 7.6C17 297 .7 283.5.3 266.4c-.1-3.4.4-6.7 1.5-9.9 4.5 13 18.5 22.2 34.7 21.8 8-.2 15.8-2.9 22.2-7.7a35.8 35.8 0 0033.2 18.2 39 39 0 0018.2-5 39.1 39.1 0 0046.5-9.2c1.9.2 3.8.3 5.7.2a35.3 35.3 0 0033-22.2c1 2.7 1.5 5.6 1.5 8.4z" fill="#000002" opacity="0.08">
			</path>
			<path d="M894.3 98.1c1.6 14-10.5 26.7-27 28.5-7.5.9-15-.8-21.4-4.8-2.4 1.4-5 2.3-7.9 2.5a19 19 0 01-11.6-2.3 33.9 33.9 0 01-34 3c-15.8 1-29.4-8.5-30.8-22-1.6-13.8 10.5-26.6 27-28.4 3.4-.4 6.8-.3 10.2.4 5.4-6.2 13-10.1 21.2-11 13.7-1.4 26 5 30.7 15.3 3.5-1.6 7.2-2.7 11-3 16.5-1.9 31 8 32.6 21.8z" fill="#E8E8E8">
			</path>
			<path d="M867.3 126.6c-7.5.9-15-.8-21.4-4.8-2.4 1.4-5 2.3-7.8 2.5a19 19 0 01-11.7-2.3c-10 7-23 8.2-34 3-15.8 1-29.4-8.5-30.9-22-.2-2.3 0-4.7.5-7 2.7 12.1 15.5 20.5 30.3 19.6a33.8 33.8 0 0034-3 19 19 0 0011.8 2.3c2.7-.3 5.4-1.2 7.8-2.6 6.4 4 14 5.7 21.4 4.8 13.6-1.5 24.2-10.4 26.6-21.3l.4 2.3c1.6 13.9-10.5 26.7-27 28.5z" fill="#000" opacity="0.06">
			</path>
			<path d="M588.1 285.6c-3 18.6 12.5 36.6 34.5 40 10 1.8 20.3 0 29.2-5a26.1 26.1 0 0026.1 1.6c13 10 30.4 12.4 45.7 6.3 21 2.3 40-9.7 42.8-27.6 3-18.6-12.4-36.5-34.4-40-4.6-.8-9.2-.8-13.8-.2-6.2-8-16.1-14.1-28-16-18.3-3-35.3 5-42.3 18.5-4.5-2.4-9.5-4-14.5-4.8-22-3.6-42.3 8.6-45.3 27.3z" fill="#E8E8E8">
			</path>
			<path d="M766.4 301c-2.9 17.8-21.8 29.8-42.8 27.5a45.7 45.7 0 01-45.6-6.3 26.4 26.4 0 01-26.2-1.6c-8.8 5-19.1 6.8-29.2 5-22-3.5-37.4-21.4-34.4-40a29 29 0 012.2-7.3c5 11.7 17 21 32.2 23.4 10 1.7 20.4 0 29.2-5a26.2 26.2 0 0026.2 1.6c13 10 30.4 12.4 45.6 6.3 18 2 34.5-6.6 40.7-20.3 2.3 5.2 3 11 2.1 16.6z" fill="#000" opacity="0.08">
			</path>
			<path d="M397 141.8c-1.6 9.8 6.6 19.3 18.2 21.2 5.3.9 10.8 0 15.5-2.7 1.6 1 3.5 1.8 5.5 2 2.8.6 5.8.1 8.3-1.2 3.3 2.5 7.1 4.2 11.2 4.8 4.4.8 8.9.3 13-1.4 11.1 1.2 21.1-5.2 22.7-14.6 1.5-9.9-6.6-19.4-18.3-21.2a25 25 0 00-7.3-.1A23 23 0 00451 120c-9.7-1.6-18.7 2.7-22.4 9.8-2.4-1.3-5-2.2-7.7-2.6-11.7-1.8-22.4 4.6-23.9 14.5z" fill="#E8E8E8">
			</path>
			<path d="M491.3 149.9c-1.5 9.4-11.5 15.8-22.7 14.6-8 3.2-17.2 2-24.1-3.4a13.9 13.9 0 01-13.9-.8 23.4 23.4 0 01-15.4 2.7c-11.7-1.9-19.8-11.3-18.3-21.2l1.2-3.9a22 22 0 0017 12.4c5.4 1 10.8 0 15.5-2.7a14 14 0 0013.9.9 24.2 24.2 0 0024.1 3.3c9.6 1 18.3-3.5 21.5-10.7 1.3 2.7 1.7 5.8 1.2 8.8z" fill="#000" opacity="0.08">
			</path>
		</g>
		<path d="M398.5 462.4h-.8a1.5 1.5 0 010-3h.8c3.6 0 7.4 0 11.2-.3a1.5 1.5 0 01.1 3l-11.3.3zm-12.7-.4h-.2c-4.2-.3-8.2-.8-12-1.4a1.5 1.5 0 01.5-3c3.7.6 7.6 1 11.8 1.4a1.5 1.5 0 11-.1 3zm36-.8a1.5 1.5 0 01-.2-3c3.9-.3 7.9-.8 11.9-1.4a1.5 1.5 0 11.4 3c-4 .6-8 1-12 1.4h-.1zm-59.7-3.1a77.6 77.6 0 01-11.9-4.3 1.5 1.5 0 111.3-2.7c3.6 1.7 7.3 3 11 4a1.5 1.5 0 01-.4 3zm83.4-.2a1.5 1.5 0 01-.2-3c7.1-1.3 11.6-2.4 11.6-2.4a1.5 1.5 0 11.8 2.9s-4.6 1.1-11.9 2.5h-.3zm-105-10a44.1 44.1 0 01-9.6-9.1 1.5 1.5 0 112.5-1.9c2.3 3.1 5 6 8 8.3a1.5 1.5 0 01-.8 2.6zM327 428.5c-.7 0-1.3-.4-1.4-1a27.9 27.9 0 01-.4-12.6 1.5 1.5 0 012.7-.6c.2.3.3.7.2 1.1a26.4 26.4 0 00.4 11.3 1.5 1.5 0 01-1.5 1.8zm423.3-1.8c-2.5 0-5.1 0-7.9-.2a1.5 1.5 0 01.2-3c4.2.2 8.1.3 11.9.1a1.5 1.5 0 010 3l-4.2.1zm-19.8-1h-.1a337 337 0 01-12-1.4 1.5 1.5 0 01.4-3c4.1.6 8.1 1 11.9 1.4a1.5 1.5 0 01-.2 3zm36 0a1.5 1.5 0 01-.3-3 59.4 59.4 0 0011.3-2.8 1.5 1.5 0 011.1 2.8l-2.5.9c-3 1-6.2 1.6-9.4 2.1h-.2zm-59.8-3.1h-.2l-11.9-2a1.5 1.5 0 01.6-3l11.8 2a1.5 1.5 0 01-.3 3zm-23.6-4.4h-.3a839 839 0 01-11.8-2.6 1.5 1.5 0 01.7-2.9c4 1 8 1.7 11.7 2.5a1.5 1.5 0 01-.3 3zm105.3-1.4a1.5 1.5 0 01-1-2.7c3.1-2.4 6-5.1 8.5-8.1a1.5 1.5 0 112.3 2c-2.7 3.1-5.7 6-8.9 8.5-.2.2-.6.3-.9.3zM659.5 413a1159.4 1159.4 0 01-12-2.8 1.5 1.5 0 11.7-3l11.7 2.9a1.5 1.5 0 01-.4 3v-.1zm-23.3-5.7h-.3l-11.7-3a1.5 1.5 0 01.8-2.9l11.6 3a1.5 1.5 0 01-.4 3v-.1zM331 405.7a1.5 1.5 0 01-1.3-2.3c2.1-3.5 4.7-6.8 7.6-9.7a1.5 1.5 0 112.1 2 50.6 50.6 0 00-7.2 9.2c-.2.5-.7.8-1.2.8zm282.1-4.4h-.4L601 398a1.5 1.5 0 11.8-2.9l11.6 3.2a1.5 1.5 0 01-.4 3zm191-2.4c-.3 0-.6 0-.8-.2-.7-.5-.9-1.4-.5-2.1l2.5-4.3a1.5 1.5 0 011.4-2.6l1.7-3.5a1.5 1.5 0 112.8 1.3l-1.7 3.4a33 33 0 008.3 2 1.5 1.5 0 01-.4 3c-3.2-.3-6.3-1.1-9.3-2.3l-2.7 4.6c-.3.4-.7.7-1.2.7h-.1zM589.9 395h-.4l-11.6-3.3a1.5 1.5 0 11.8-3l11.6 3.4a1.5 1.5 0 01-.4 2.9zm239.5-.1a1.5 1.5 0 01-.4-3c3.8-1 7.6-2.3 11.2-3.8a1.5 1.5 0 011.1 2.8 112.5 112.5 0 01-11.9 4zm-482-6.4c-.5 0-1-.3-1.3-.7-.5-.6-.3-1.6.3-2 3.3-2.5 6.7-4.7 10.3-6.7a1.5 1.5 0 111.4 2.6c-3.4 2-6.7 4.1-9.9 6.4-.2.2-.5.3-.9.3zm219.4 0l-.4-.1-11.6-3.4a1.5 1.5 0 01.9-2.9l11.5 3.3a1.5 1.5 0 01-.4 3zM796 386c-.3 0-.7 0-1-.3-3.1-2.6-6-5.5-8.6-8.7a1.5 1.5 0 012.3-2 57 57 0 008.3 8.4 1.5 1.5 0 01-1 2.6zm55.6-.3a1.5 1.5 0 01-.7-2.8c3.4-1.9 6.7-4 9.9-6.3a1.5 1.5 0 011.8 2.4 91 91 0 01-11 6.7zm-308-4.1h-.4l-11.5-3.4a1.5 1.5 0 01.9-3l11.5 3.4a1.5 1.5 0 01-.4 3zm270.5-4.6h-.5a1.5 1.5 0 01-1-2c1.2-3.7 2.2-7.5 2.9-11.4a1.5 1.5 0 013 .6c-.8 4-1.8 8-3 11.8-.2.6-.8 1-1.4 1zm-446-.6a1.5 1.5 0 01-.6-2.9 145 145 0 0111.2-4.5 1.5 1.5 0 011 2.8 139.2 139.2 0 00-11.6 4.6zm152.5-1.6h-.4l-11.5-3.4a1.5 1.5 0 01.8-2.9L521 372a1.5 1.5 0 01-.4 3zm350.2-3.3a1.5 1.5 0 01-1-2.6c2.8-2.8 5.4-5.7 7.8-8.8a1.5 1.5 0 012.4 1.8 89 89 0 01-8 9.1c-.4.3-.8.5-1.2.4zm-480.1-3.1a1.5 1.5 0 01-.4-3c3.8-1 7.8-2 11.8-2.8a1.5 1.5 0 01.5 3 182.8 182.8 0 00-11.9 2.8zm106.9-.1h-.4c-3.9-1-7.8-1.8-11.6-2.6a1.5 1.5 0 11.5-3c4 .8 7.9 1.7 11.8 2.7a1.5 1.5 0 01-.3 3v-.1zm283.5-.9c-.6 0-1-.3-1.3-.8a40.6 40.6 0 01-3.8-11.8 1.5 1.5 0 013-.5c.6 3.8 1.8 7.5 3.5 11a1.5 1.5 0 01-1.4 2.1zM474 364h-.2c-4-.6-8-1-11.9-1.4a1.5 1.5 0 11.3-3c4 .4 8 .8 12 1.4a1.5 1.5 0 01-.2 3zm-59.8-.2a1.5 1.5 0 11-.2-3c4-.6 8-1 12-1.3a1.5 1.5 0 11.2 3c-4 .3-8 .7-11.8 1.3h-.2zm35.9-1.9h-12a1.5 1.5 0 010-3h12.1a1.5 1.5 0 010 3h-.1zm368-8.2c-.8 0-1.5-.7-1.5-1.5 0-3.9-.5-7.7-1.7-11.4a1.5 1.5 0 012.8-1c1.3 4 2 8.2 1.9 12.4a1.5 1.5 0 01-1.5 1.5zm67.3-1c-.2 0-.5 0-.7-.2-.7-.4-1-1.3-.6-2 2-3.4 3.8-7 5.4-10.6a1.5 1.5 0 112.7 1.2c-1.6 3.7-3.4 7.4-5.5 10.9-.2.4-.7.7-1.3.7zm-106.8-8.3h-.5a1.5 1.5 0 01-.9-2c1.7-4 4.5-7.4 8.2-9.7a1.5 1.5 0 111.7 2.5c-3.2 2-5.6 4.9-7 8.3-.3.6-.9 1-1.5 1zm30.5-11.8c-.3 0-.5 0-.7-.2-2.9-1.5-6.5-2-10.7-1.2-.8.2-1.6-.3-1.8-1.2-.1-.8.4-1.5 1.2-1.7 5-1 9.3-.4 12.7 1.5a1.5 1.5 0 01-.7 2.8zm86-1.8h-.5a1.5 1.5 0 01-1-2c1.1-3.6 2.2-7.5 3-11.4a1.5 1.5 0 013 .6c-1 4-2 8-3.2 11.7-.2.7-.7 1-1.4 1zm5.2-23.4h-.2a1.5 1.5 0 01-1.3-1.7c.6-3.8 1-7.8 1.3-11.8a1.5 1.5 0 011.6-1.4c.9.1 1.5.8 1.4 1.6-.3 4.1-.8 8.2-1.3 12-.1.8-.8 1.3-1.5 1.3zm2-23.9a1.5 1.5 0 01-1.5-1.5V276 270a1.5 1.5 0 013-.1V282a1.5 1.5 0 01-1.6 1.4zm-.6-24c-.8 0-1.4-.6-1.5-1.4-.2-3.8-.6-7.9-1-11.9a1.5 1.5 0 013-.3c.4 4 .8 8.1 1 12 0 .8-.5 1.6-1.4 1.6zm-2.4-23.8c-.7 0-1.4-.6-1.5-1.3a345.8 345.8 0 00-1.8-11.8 1.5 1.5 0 013-.6 160.5 160.5 0 011.9 12c0 .8-.5 1.5-1.3 1.6h-.3zM895 212c-.7 0-1.3-.5-1.4-1.1-1-3.9-2.1-7.7-3.3-11.5a1.5 1.5 0 012.8-.9c1.3 3.8 2.4 7.7 3.4 11.6.2.8-.3 1.7-1.1 1.9h-.4zm-7.4-22.8c-.6 0-1.1-.4-1.4-1-1.4-3.6-3-7.3-4.8-10.8a1.5 1.5 0 112.7-1.3 176 176 0 015 11 1.5 1.5 0 01-1.5 2.1zm-10.4-21.5c-.6 0-1-.3-1.3-.8-2-3.4-4.1-6.8-6.3-10a1.5 1.5 0 112.5-1.8 179 179 0 016.4 10.3 1.5 1.5 0 01-1.3 2.3zm-13.4-20c-.5 0-1-.1-1.2-.5-2.4-3-5-6.2-7.6-9.1a1.5 1.5 0 112.2-2c2.7 3 5.3 6.1 7.8 9.3a1.5 1.5 0 01-1.2 2.4zm-16-17.8c-.4 0-.8-.2-1-.5l-8.8-8a1.5 1.5 0 112-2.3c3 2.6 6 5.4 8.9 8.2.6.6.6 1.5 0 2.1-.3.3-.7.5-1 .5h-.1zM829.6 114c-.3 0-.7-.1-1-.3a216 216 0 00-9.6-7 1.5 1.5 0 011.8-2.5c3.3 2.3 6.6 4.7 9.7 7.1a1.5 1.5 0 01-.9 2.7zm-19.8-13.6c-.3 0-.5 0-.8-.2l-10.3-6a1.5 1.5 0 111.4-2.6c3.6 1.9 7.1 4 10.5 6 .7.4 1 1.3.5 2-.2.5-.7.8-1.3.8zm-21-11.4c-.3 0-.5 0-.7-.2L777.2 84a1.5 1.5 0 111.2-2.7c3.7 1.5 7.4 3.2 11 5a1.5 1.5 0 01-.7 2.8zm-22.2-9.4l-.5-.1a289 289 0 00-11.3-4 1.5 1.5 0 011-2.8l11.3 4a1.5 1.5 0 01-.5 3v-.1zm-22.9-7.4h-.4l-11.5-3a1.5 1.5 0 11.7-2.8c3.9.8 7.8 1.8 11.6 3a1.5 1.5 0 01-.4 2.9zM720.5 67h-.3l-11.8-2a1.5 1.5 0 01.5-3c4 .6 8 1.2 11.9 2a1.5 1.5 0 01-.3 3zm-23.8-3.4h-.1c-4-.5-8-.8-12-1a1.5 1.5 0 01.3-3c4 .2 8 .5 12 1a1.5 1.5 0 01-.2 3zm-30-1.4a1.5 1.5 0 010-3h6a1.5 1.5 0 010 3h-6z" fill="#152E59">
		</path>
		<path fill="#FFAD01" d="M325.3 517h69.8v458h-69.8z">
		</path>
		<path d="M326 517h19v458h-19z" opacity="0.14" fill="#FFF" class="">
		</path>
		<path d="M371 517h24v458h-24z" opacity="0.14" fill="#000">
		</path>
		<path d="M577.8 251.7a97.1 97.1 0 00-89 96.7l.1 168.3H212.4V348.4a97.2 97.2 0 0197.1-97.1H572c2 0 3.9.2 5.8.4z" fill="#152E59" class="">
		</path>
		<rect x="0.86" y="0.79" width="180.5" height="9.57" rx="4.785" opacity="0.71" transform="translate(338 257)" fill="#FFF">
		</rect>
		<rect x="0.36" y="0.79" width="31.63" height="9.57" rx="4.785" opacity="0.71" transform="translate(294 257)" fill="#FFF">
		</rect>
		<path d="M666.7 348.4v168.3H488.9V348.4a97.1 97.1 0 0189-96.7c1.4 0 2.8.3 4.2.4l1 .2 1.7.2 2.2.4 2.6.5 2 .4a98.1 98.1 0 0133.2 14.7l.5.3 1.6 1.2 1.1.9 1.5 1.1c1.3 1 2.6 2 3.8 3.2l1.3 1.1a79.5 79.5 0 016 5.9 98.3 98.3 0 0116.5 24l.9 1.9 1.4 3.2.8 2 .7 2 .6 1.7.5 1.7.9 2.7.5 1.8.5 1.8.7 3.3.3 1.6.4 2.2.3 1.9.2 1.4a69 69 0 01.9 13z" fill="#152E32" class="">
		</path>
		<path d="M666.7 348.4v168.3h-32.2V348.4l-.1-4.7v-1.1l-.4-4-.4-3.2-.2-1.5-.3-1.8-.4-2.2c0-.6-.2-1-.3-1.6a68.1 68.1 0 00-1.2-5.2l-.5-1.8-.9-2.7-.6-1.7-.5-1.7-.8-1.9-.7-2-1.5-3.3-.8-1.8a88.5 88.5 0 00-3.1-5.9 97.8 97.8 0 00-19.4-24l-1.2-1.1-3.8-3.2-1.5-1.1-1.2-1-1.6-1-.5-.4a76 76 0 00-15-8.5l-1.1-.5a87.8 87.8 0 00-14.8-5l3-.8 2.1-.5h.3l1.6-.3a38.8 38.8 0 015-.8l4.2-.4c1.4 0 2.8.3 4.3.4l1 .2 1.6.2a82.6 82.6 0 014.9.9l1.9.4 2.2.6a97.4 97.4 0 0131 14.1l.5.3 1.6 1.2 1.1.9 1.5 1.1c1.3 1 2.6 2 3.8 3.2l1.3 1.1a79.5 79.5 0 016 5.9 97.9 97.9 0 0116.5 24l.8 1.9 1.5 3.2.7 2 .8 2 .6 1.7.5 1.7.9 2.7.5 1.8.5 1.8.7 3.3.3 1.6.4 2.2.3 1.9.2 1.5a69 69 0 01.9 13z" opacity="0.08" fill="#FFF">
		</path>
		<path d="M577.7 260a97.1 97.1 0 00-56.8 88.4v168.3h-32V348.4c0-44.2 30-82.9 72.8-94a94 94 0 0116 5.7z" opacity="0.08" fill="#000" class="">
		</path>
		<path d="M489 516.7H212.3V348.4c0-22 7.4-43.2 21.1-60.4 15.2 30.6 37.6 66.8 64.2 82.2 32.2 18.6 92.5 32.3 137.6 56.6a102 102 0 0153.6 90z" opacity="0.1" fill="#000" class="">
		</path>
		<path d="M793.5 516.7H622.7v-15.2h170.8a7.6 7.6 0 017.6 7.6c0 4.2-3.4 7.6-7.6 7.6z" fill="#152E59" class="">
		</path>
		<path fill="#152E59" d="M488.8 501.5h134v15.2h-134z">
		</path>
		<path d="M488.8 501.5h134v15.2h-134z" opacity="0.26" fill="#000">
		</path>
		<path d="M368.9 78.5v287.6a8.2 8.2 0 01-8.3 7.7h-2a8.3 8.3 0 01-8.2-7.6V78.6v-1.3a8.6 8.6 0 018.6-7.4h1.3a8.6 8.6 0 018.4 6.7l.2 2z" fill="#D38552">
		</path>
		<path d="M368.9 79.2v294.6h-5V79.2c0-3.9-3.5-7.2-8.4-8.5 1-.5 2.3-.8 3.5-.8h1.3c4 0 7.5 2.8 8.4 6.8l.2 2.5z" opacity="0.18" fill="#FFF">
		</path>
		<path d="M362.4 70.2c-3.8 1.1-7.2 4.8-7.2 9v294.6h-4.8V79.2v-2A8.6 8.6 0 01359 70h1.3l2.1.3z" opacity="0.08" fill="#000">
		</path>
		<circle fill="#DCDFE6" cx="359.61" cy="364.52" r="19.16">
		</circle>
		<circle fill="#FFAD01" cx="359.61" cy="364.52" r="14.36">
		</circle>
		<path d="M359.1 377.6c1 .4 2.2.8 3.3 1l-.6.1h-.8l-1.4.1H358l-1-.1-.6-.2a14.4 14.4 0 010-28l.6-.1 1-.2h3.4l.4.1.6.1a14.3 14.3 0 00-3.2 27.1z" opacity="0.08" fill="#FFF">
		</path>
		<path d="M374 364.5c0 6.9-4.9 12.8-11.6 14.1-1.1-.2-2.2-.6-3.2-1a14.4 14.4 0 000-26.1c1-.5 2.1-.9 3.2-1a14.4 14.4 0 0111.6 14z" opacity="0.08" fill="#000">
		</path>
		<path d="M350.3 78.9c1 2.4-84.9 35.2-84.9 35.2l85 33.5V78.9z" fill="#FFAD01">
		</path>
		<path d="M277 114.1l73.4 29V84.8C327 95 277 114 277 114z" opacity="0.14" fill="#FFF">
		</path>
		<path d="M666 370.2l63.8 37.5a12.8 12.8 0 013.4 19.1 11.2 11.2 0 01-8.6 4.1h-128c-9.2 0-14-10.5-10-17.8.8-1.7 2.2-3.1 3.9-4.1l61-38.8a11.5 11.5 0 0114.6 0z" fill="#FFAD01">
		</path>
		<path fill="#E8E8E8" d="M591.5 357h138v103.3h-138z">
		</path>
		<path d="M720.3 501.5H601a15.8 15.8 0 01-15.8-15.9v-66.5l75.4 31.7 75.5-31.7v66.5a15.8 15.8 0 01-15.8 15.9z" fill="#FFAD01" class="">
		</path>
		<path d="M736.1 419.1v6.3l-75.5 31.7-75.4-31.7v-6.3l75.4 31.7z" opacity="0.08" fill="#000">
		</path>
		<path d="M666 440.7l63.8 37.6a12.8 12.8 0 013.4 19 11.1 11.1 0 01-8.6 4.2h-128c-9.2 0-14-10.5-10-17.9.9-1.6 2.2-3 3.9-4l61-38.9a11.5 11.5 0 0114.6 0z" fill="#FFAD01" class="">
		</path>
		<path d="M734.8 495a12.9 12.9 0 00-5-5.3L666 452a11.5 11.5 0 00-14.6 0l-61 38.9c-1.6 1-3 2.4-4 4a12.5 12.5 0 010-11.3c1-1.7 2.4-3.2 4-4.2l61-38.8a11.4 11.4 0 0114.6 0l63.7 37.6c5.8 3.4 8 10.7 5 16.7z" opacity="0.08" fill="#000">
		</path>
		<path d="M649 419.5a19.3 19.3 0 01-7.8-8 27.1 27.1 0 01.2-24.3 21 21 0 018.1-8.2c7.3-3.8 16-3.8 23.4 0a19 19 0 019.8 16.8c.1 3-.4 5.9-1.6 8.6-.8 2-2.2 3.6-4 4.9a9.7 9.7 0 01-5.1 1.5c-1.6 0-3.2-.4-4.5-1.3-1-.8-1.8-2.1-1.8-3.5h-.1c-.9 1.4-2 2.6-3.4 3.5-1.4.9-3 1.3-4.7 1.3-2.2 0-4.3-.9-5.7-2.5a10 10 0 01-2.2-6.9c0-2.3.5-4.7 1.4-6.8.9-2 2.3-3.8 4-5.2 1.7-1.3 3.8-2 6-2a8 8 0 014.3 1.3c1.2.7 2 1.8 2.5 3.1l.7-3.7h3.4l-2.5 14.5-.2 2c0 .9.2 1.8.9 2.5.7.6 1.6.8 2.5.8a5 5 0 003-1.2 9 9 0 002.7-4 19.3 19.3 0 00-1-15 15.3 15.3 0 00-6-6c-3.2-1.6-6.6-2.4-10.1-2.3-3.5 0-6.8.8-9.9 2.4-2.9 1.6-5.3 4-6.8 7a24.2 24.2 0 00-.2 21 16 16 0 006.6 6.8 21 21 0 0010.3 2.4c2.6 0 5.3-.4 7.8-1.3 2-.7 3.7-2 5-3.6h4.7c-1.6 2.6-4 4.7-6.8 6a27.2 27.2 0 01-22.8-.7zm13.9-13.3c1.3-1 2.3-2.5 3-4.1.6-1.8 1-3.6 1-5.5 0-1.6-.5-3.2-1.5-4.5-1-1.1-2.5-1.7-4-1.6-1.7 0-3.2.5-4.5 1.5a9.7 9.7 0 00-2.9 4c-.7 1.7-1 3.4-1 5.2-.1 1.8.4 3.5 1.5 4.9a4.7 4.7 0 003.7 1.7 7 7 0 004.6-1.6z" fill="#C4C4C4">
		</path>
		<path fill="#FFAD01" d="M675.5 26.2l-6.6 21-3.5 11.2-6.4 20.3-60.7-10.5 77.3-42z">
		</path>
		<path fill="#FFAD01" d="M677.3 65.5l-8.4-18.3-4.7 14.9z">
		</path>
		<path d="M677.3 65.5l-8.4-18.3-4.7 14.9z" opacity="0.11" fill="#000">
		</path>
		<path d="M598.3 68.2l66-6.1 4.6-15z" opacity="0.21" fill="#000">
		</path>
	</g>
</svg>
